<svg width="24" height="24" viewBox="0 0 24 24" fill="none" xmlns="http://www.w3.org/2000/svg">
<path d="M20.9749 11.8148L20.4822 11.9L20.4822 11.9L20.9749 11.8148ZM20.2694 7.73505L19.7767 7.82025L19.7767 7.82025L20.2694 7.73505ZM6.93752 3.52293L6.43938 3.47986L6.43938 3.47985L6.93752 3.52293ZM6.12535 12.9156L6.6235 12.9587L6.6235 12.9587L6.12535 12.9156ZM13.9947 18.7786L14.4881 18.6977L14.4881 18.6977L13.9947 18.7786ZM13.332 14.734L13.8254 14.6532L13.8254 14.6532L13.332 14.734ZM6.69789 14.3225L6.37149 14.7013L6.37149 14.7013L6.69789 14.3225ZM8.13663 15.5623L8.46302 15.1835L8.46302 15.1835L8.13663 15.5623ZM10.5178 19.2163L10.0338 19.3418L10.0338 19.3418L10.5178 19.2163ZM10.9935 21.0501L11.4775 20.9246L11.4775 20.9246L10.9935 21.0501ZM12.6673 21.9356L12.5144 21.4596L12.5144 21.4596L12.6673 21.9356ZM12.8123 21.8891L12.9652 22.3651L12.9652 22.3651L12.8123 21.8891ZM9.8617 17.5374L10.3027 17.3018L10.3027 17.3018L9.8617 17.5374ZM13.9044 20.7525L13.4204 20.6269L13.4204 20.6269L13.9044 20.7525ZM11.6739 21.8676L11.4569 22.318L11.4569 22.318L11.6739 21.8676ZM20.4822 11.9L19.7767 7.82025L20.7621 7.64985L21.4676 11.7296L20.4822 11.9ZM13.2447 2.5H8.59609V1.5H13.2447V2.5ZM7.43566 3.566L6.6235 12.9587L5.62721 12.8725L6.43938 3.47986L7.43566 3.566ZM19.7767 7.82025C19.248 4.76338 16.496 2.5 13.2447 2.5V1.5C16.956 1.5 20.1461 4.08784 20.7621 7.64985L19.7767 7.82025ZM13.5013 18.8594L12.8386 14.8149L13.8254 14.6532L14.4881 18.6977L13.5013 18.8594ZM7.02428 13.9437L8.46302 15.1835L7.81023 15.9411L6.37149 14.7013L7.02428 13.9437ZM11.0018 19.0907L11.4775 20.9246L10.5095 21.1757L10.0338 19.3418L11.0018 19.0907ZM12.5144 21.4596L12.6594 21.413L12.9652 22.3651L12.8203 22.4117L12.5144 21.4596ZM10.3027 17.3018C10.6055 17.8685 10.8404 18.4687 11.0018 19.0907L10.0338 19.3418C9.89246 18.7969 9.68648 18.2706 9.42067 17.773L10.3027 17.3018ZM12.6594 21.413C13.0442 21.2894 13.3266 20.9887 13.4204 20.6269L14.3884 20.878C14.2053 21.584 13.6638 22.1407 12.9652 22.3651L12.6594 21.413ZM11.4775 20.9246C11.5315 21.133 11.6794 21.3152 11.891 21.4172L11.4569 22.318C10.989 22.0926 10.6397 21.6776 10.5095 21.1757L11.4775 20.9246ZM11.891 21.4172C12.0837 21.51 12.3086 21.5257 12.5144 21.4596L12.8203 22.4117C12.3713 22.5559 11.8815 22.5227 11.4569 22.318L11.891 21.4172ZM14.1534 13.2658H19.3345V14.2658H14.1534V13.2658ZM14.4881 18.6977C14.607 19.4235 14.5731 20.1662 14.3884 20.878L13.4204 20.6269C13.5701 20.0498 13.5977 19.4478 13.5013 18.8594L14.4881 18.6977ZM8.59609 2.5C7.99223 2.5 7.48784 2.96248 7.43566 3.566L6.43938 3.47985C6.53618 2.3603 7.4724 1.5 8.59609 1.5V2.5ZM8.46302 15.1835C9.13877 15.7658 9.84138 16.4382 10.3027 17.3018L9.42067 17.773C9.05131 17.0815 8.46955 16.5092 7.81023 15.9411L8.46302 15.1835ZM21.4676 11.7296C21.6966 13.0536 20.6784 14.2658 19.3345 14.2658V13.2658C20.0566 13.2658 20.6057 12.614 20.4822 11.9L21.4676 11.7296ZM12.8386 14.8149C12.7057 14.0039 13.3309 13.2658 14.1534 13.2658V14.2658C13.949 14.2658 13.7921 14.4496 13.8254 14.6532L12.8386 14.8149ZM6.6235 12.9587C6.59116 13.3326 6.74041 13.6991 7.02428 13.9437L6.37149 14.7013C5.84405 14.2468 5.56722 13.5663 5.62721 12.8725L6.6235 12.9587Z" fill="#624632"/>
<path fill-rule="evenodd" clip-rule="evenodd" d="M2.96767 14.5149C3.36893 14.5322 3.71261 14.2304 3.74721 13.8302L4.71881 2.5937C4.78122 1.87191 4.21268 1.24981 3.48671 1.24981C2.80289 1.24981 2.25 1.80456 2.25 2.48707V13.7656C2.25 14.1673 2.5664 14.4976 2.96767 14.5149Z" stroke="#624632"/>
</svg>
